<svg width="28" height="29" viewBox="0 0 28 29" fill="none" xmlns="http://www.w3.org/2000/svg">
<path d="M3.11111 0C1.39222 0 0 1.41189 0 3.15507V25.2405C0 26.9837 1.39222 28.3956 3.11111 28.3956H24.8889C26.6078 28.3956 28 26.9837 28 25.2405V3.15507C28 1.41189 26.6078 0 24.8889 0H3.11111ZM3.11111 3.15507H24.8889V25.2405H3.11111V3.15507ZM7.43446 5.23174C6.10135 5.23174 5.30165 6.04445 5.30165 7.12663C5.30165 8.20882 6.10145 9.01844 7.30078 9.01844C8.63389 9.01844 9.43359 8.20882 9.43359 7.12663C9.43359 6.04445 8.6338 5.23174 7.43446 5.23174ZM5.40799 11.0427V22.0855H9.33333V11.0427H5.40799ZM12.572 11.0427V22.0855H16.4974V16.0496C16.4974 14.2528 17.7615 13.9945 18.1411 13.9945C18.5206 13.9945 19.5356 14.3805 19.5356 16.0496V22.0855H23.3333V16.0496C23.3333 12.5837 21.8147 11.0427 19.9154 11.0427C18.016 11.0427 17.003 11.6841 16.4974 12.5833V11.0427H12.572Z" fill="#8ACA4A"/>
</svg>
