<svg width="28" height="29" viewBox="0 0 28 29" fill="none" xmlns="http://www.w3.org/2000/svg">
<path d="M14 0C6.272 0 0 6.36062 0 14.1978C0 22.035 6.272 28.3956 14 28.3956H21V25.5561H14C7.924 25.5561 2.8 20.3597 2.8 14.1978C2.8 8.03596 7.924 2.83956 14 2.83956C20.076 2.83956 25.2 8.03596 25.2 14.1978V16.2281C25.2 17.3497 24.206 18.4572 23.1 18.4572C21.994 18.4572 21 17.3497 21 16.2281V14.1978C21 10.2792 17.864 7.0989 14 7.0989C10.136 7.0989 7 10.2792 7 14.1978C7 18.1164 10.136 21.2967 14 21.2967C15.932 21.2967 17.696 20.5016 18.956 19.2096C19.866 20.4732 21.434 21.2967 23.1 21.2967C25.858 21.2967 28 19.0251 28 16.2281V14.1978C28 6.36062 21.728 0 14 0ZM14 18.4572C11.676 18.4572 9.8 16.5546 9.8 14.1978C9.8 11.841 11.676 9.93847 14 9.93847C16.324 9.93847 18.2 11.841 18.2 14.1978C18.2 16.5546 16.324 18.4572 14 18.4572Z" fill="#8ACA4A"/>
</svg>
